<?xml version="1.0" standalone="no"?>
<!DOCTYPE svg PUBLIC "-//W3C//DTD SVG 1.1//EN" "http://www.w3.org/Graphics/SVG/1.1/DTD/svg11.dtd" >
<svg xmlns="http://www.w3.org/2000/svg" xmlns:xlink="http://www.w3.org/1999/xlink" version="1.1">
<metadata>
Created by FontForge 20160407 at Sat Aug 27 23:35:11 2016
 By Jimmy Wärting
Created by Rebecca Bettencourt with FontForge 2.0 (http://fontforge.sf.net)
</metadata>
<defs>
<font id="Berkelium64" horiz-adv-x="500" >
  <font-face 
    font-family="Berkelium 64"
    font-weight="500"
    font-stretch="normal"
    units-per-em="1000"
    panose-1="0 0 0 0 0 0 0 0 0 0"
    ascent="800"
    descent="-200"
    x-height="500"
    cap-height="700"
    bbox="-100 -200 1100 1000"
    underline-thickness="100"
    underline-position="-150"
    unicode-range="U+0020-FB07"
  />
<missing-glyph horiz-adv-x="0" 
 />
    <glyph glyph-name=".notdef" horiz-adv-x="0" 
 />
    <glyph glyph-name=".null" horiz-adv-x="0" 
 />
    <glyph glyph-name="nonmarkingreturn" horiz-adv-x="0" 
 />
    <glyph glyph-name="space" unicode=" " 
 />
    <glyph glyph-name="exclam" unicode="!" horiz-adv-x="200" 
d="M0 0v100h100v-100h-100zM0 200v500h100v-500h-100z" />
    <glyph glyph-name="quotedbl" unicode="&#x22;" horiz-adv-x="400" 
d="M300 700v-200h-100v200h100zM100 500h-100v200h100v-200z" />
    <glyph glyph-name="numbersign" unicode="#" horiz-adv-x="600" 
d="M400 700v-200h100v-100h-100v-100h100v-100h-100v-200h-100v200h-100v-200h-100v200h-100v100h100v100h-100v100h100v200h100v-200h100v200h100zM300 300v100h-100v-100h100z" />
    <glyph glyph-name="dollar" unicode="$" horiz-adv-x="600" 
d="M0 0v100h200v300h-100v100h100v100h-100v100h400v-100h-200v-300h100v-100h-100v-100h100v-100h-100v-100h-100v100h-200zM500 100h-100v100h100v-100zM100 600v-100h-100v100h100z" />
    <glyph glyph-name="percent" unicode="%" horiz-adv-x="600" 
d="M300 300h-100v100h100v-100zM300 500h100v-100h-100v100zM0 100v100h100v-100h-100zM500 0h-200v200h200v-200zM0 700h200v-200h-200v200zM400 500v100h100v-100h-100zM100 200v100h100v-100h-100z" />
    <glyph glyph-name="ampersand" unicode="&#x26;" horiz-adv-x="600" 
d="M100 0v100h200v200h-200v100h200v100h100v-100h100v-100h-100v-300h-300zM0 100v200h100v-200h-100zM100 700h200v-100h-200v100zM0 600h100v-200h-100v200z" />
    <glyph glyph-name="quotesingle" unicode="'" horiz-adv-x="200" 
d="M100 500h-100v200h100v-200z" />
    <glyph glyph-name="parenleft" unicode="(" horiz-adv-x="400" 
d="M100 0v100h100v-100h-100zM200 -100v100h100v-100h-100zM0 100v400h100v-400h-100zM200 700h100v-100h-100v100zM100 600h100v-100h-100v100z" />
    <glyph glyph-name="parenright" unicode=")" horiz-adv-x="400" 
d="M0 0h100v-100h-100v100zM100 0v100h100v-100h-100zM300 500v-400h-100v400h100zM0 700h100v-100h-100v100zM100 600h100v-100h-100v100z" />
    <glyph glyph-name="asterisk" unicode="*" horiz-adv-x="600" 
d="M500 100h-100v100h100v-100zM200 0v200h-100v100h-100v100h100v100h100v200h100v-200h100v-100h100v-100h-100v-100h-100v-200h-100zM100 100h-100v100h100v-100zM100 600v-100h-100v100h100zM500 500h-100v100h100v-100z" />
    <glyph glyph-name="plus" unicode="+" horiz-adv-x="600" 
d="M500 300v-100h-200v-200h-100v200h-200v100h200v200h100v-200h200z" />
    <glyph glyph-name="comma" unicode="," horiz-adv-x="300" 
d="M0 0h100v-100h-100v100zM100 0v100h100v-100h-100z" />
    <glyph glyph-name="hyphen" unicode="-" 
d="M0 200v100h400v-100h-400z" />
    <glyph glyph-name="period" unicode="." horiz-adv-x="200" 
d="M0 0v100h100v-100h-100z" />
    <glyph glyph-name="slash" unicode="/" horiz-adv-x="700" 
d="M0 0v100h100v-100h-100zM600 500h-100v100h100v-100zM300 300v-100h-100v100h100zM100 100v100h100v-100h-100zM300 400h100v-100h-100v100zM400 500h100v-100h-100v100z" />
    <glyph glyph-name="zero" unicode="0" 
d="M100 0v100h200v-100h-200zM400 100h-100v300h-100v100h100v100h100v-500zM0 100v500h100v-200h100v-100h-100v-200h-100zM100 700h200v-100h-200v100z" />
    <glyph glyph-name="one" unicode="1" horiz-adv-x="300" 
d="M0 600h100v100h100v-700h-100v500h-100v100z" />
    <glyph glyph-name="two" unicode="2" horiz-adv-x="400" 
d="M0 0v300h100v-200h200v-100h-300zM0 700h200v-100h-200v100zM300 600v-200h-100v200h100zM100 400h100v-100h-100v100z" />
    <glyph glyph-name="three" unicode="3" horiz-adv-x="400" 
d="M0 0v100h200v-100h-200zM300 300v-200h-100v200h100zM0 700h200v-100h-200v100zM300 600v-200h-100v200h100zM100 400h100v-100h-100v100z" />
    <glyph glyph-name="four" unicode="4" 
d="M400 700v-700h-100v200h-300v200h100v-100h200v200h-100v100h100v100h100zM100 400v100h100v-100h-100z" />
    <glyph glyph-name="five" unicode="5" horiz-adv-x="400" 
d="M0 0v100h200v-100h-200zM0 700h300v-100h-200v-100h100v-100h-200v300zM200 100v300h100v-300h-100z" />
    <glyph glyph-name="six" unicode="6" 
d="M100 0v100h200v-100h-200zM400 100h-100v200h100v-200zM300 300h-200v-200h-100v400h100v-100h200v-100zM200 700h100v-100h-100v100zM100 600h100v-100h-100v100z" />
    <glyph glyph-name="seven" unicode="7" 
d="M100 400h100v-400h-100v400zM0 600v100h400v-200h-100v100h-300zM200 400v100h100v-100h-100z" />
    <glyph glyph-name="eight" unicode="8" 
d="M100 0v100h200v-100h-200zM400 100h-100v200h100v-200zM300 300h-200v100h200v-100zM0 100v200h100v-200h-100zM100 700h200v-100h-200v100zM300 600h100v-200h-100v200zM100 400h-100v200h100v-200z" />
    <glyph glyph-name="nine" unicode="9" 
d="M100 0v100h100v-100h-100zM300 300h-200v100h200v200h100v-400h-100v100zM100 700h200v-100h-200v100zM200 100v100h100v-100h-100zM100 400h-100v200h100v-200z" />
    <glyph glyph-name="colon" unicode=":" horiz-adv-x="200" 
d="M0 0v100h100v-100h-100zM100 400v-100h-100v100h100z" />
    <glyph glyph-name="semicolon" unicode=";" horiz-adv-x="300" 
d="M0 0h100v-100h-100v100zM100 400h100v-100h-100v100zM100 0v100h100v-100h-100z" />
    <glyph glyph-name="less" unicode="&#x3c;" horiz-adv-x="400" 
d="M300 500h-100v100h100v-100zM300 200v-100h-100v100h100zM100 400v100h100v-100h-100zM0 400h100v-100h-100v100zM100 200v100h100v-100h-100z" />
    <glyph glyph-name="equal" unicode="=" horiz-adv-x="400" 
d="M0 200v100h300v-100h-300zM0 400v100h300v-100h-300z" />
    <glyph glyph-name="greater" unicode="&#x3e;" horiz-adv-x="400" 
d="M300 300h-100v100h100v-100zM0 100v100h100v-100h-100zM0 600h100v-100h-100v100zM100 400v100h100v-100h-100zM100 200v100h100v-100h-100z" />
    <glyph glyph-name="question" unicode="?" horiz-adv-x="600" 
d="M400 700v-100h-300v100h300zM200 0v100h100v-100h-100zM300 500h100v-100h-100v100zM300 200h-100v200h100v-200zM0 600h100v-100h-100v100zM400 500v100h100v-100h-100z" />
    <glyph glyph-name="at" unicode="@" horiz-adv-x="600" 
d="M400 100v-100h-300v100h300zM400 700v-100h-300v100h300zM300 300h100v100h-100v-100zM0 100v500h100v-500h-100zM400 500v100h100v-400h-300v300h200z" />
    <glyph glyph-name="A" unicode="A" horiz-adv-x="600" 
d="M0 0v500h100v-200h300v200h100v-500h-100v200h-300v-200h-100zM300 500v100h100v-100h-100zM200 700h100v-100h-100v100zM100 600h100v-100h-100v100z" />
    <glyph glyph-name="B" unicode="B" 
d="M0 0v700h300v-100h-200v-200h200v-100h-200v-200h200v-100h-300zM400 100h-100v200h100v-200zM300 600h100v-200h-100v200z" />
    <glyph glyph-name="C" unicode="C" 
d="M400 100v-100h-300v100h300zM300 500v100h100v-100h-100zM0 100v500h100v-500h-100zM100 700h200v-100h-200v100z" />
    <glyph glyph-name="D" unicode="D" 
d="M0 0v700h300v-100h-200v-500h200v-100h-300zM400 100h-100v500h100v-500z" />
    <glyph glyph-name="E" unicode="E" horiz-adv-x="400" 
d="M0 0v700h300v-100h-200v-200h200v-100h-200v-200h200v-100h-300z" />
    <glyph glyph-name="F" unicode="F" horiz-adv-x="400" 
d="M0 0v700h300v-100h-200v-200h200v-100h-200v-300h-100z" />
    <glyph glyph-name="G" unicode="G" 
d="M100 0v100h200v100h-100v100h200v-300h-300zM300 500v100h100v-100h-100zM0 100v500h100v-500h-100zM100 700h200v-100h-200v100z" />
    <glyph glyph-name="H" unicode="H" horiz-adv-x="600" 
d="M0 0v700h100v-300h300v300h100v-700h-100v300h-300v-300h-100z" />
    <glyph glyph-name="I" unicode="I" horiz-adv-x="200" 
d="M0 0v700h100v-700h-100z" />
    <glyph glyph-name="J" unicode="J" horiz-adv-x="400" 
d="M0 0v100h200v-100h-200zM300 100h-100v600h100v-600z" />
    <glyph glyph-name="K" unicode="K" horiz-adv-x="600" 
d="M0 0v700h100v-300h100v-100h-100v-300h-100zM500 100v-100h-100v100h100zM400 700h100v-100h-100v100zM300 300v-100h-100v100h100zM300 500v100h100v-100h-100zM300 100v100h100v-100h-100zM200 400v100h100v-100h-100z" />
    <glyph glyph-name="L" unicode="L" horiz-adv-x="400" 
d="M0 0v700h100v-600h200v-100h-300z" />
    <glyph glyph-name="M" unicode="M" horiz-adv-x="800" 
d="M0 0v700h100v-100h100v-100h-100v-500h-100zM600 500h-100v100h100v100h100v-700h-100v500zM300 300v100h100v-100h-100zM300 500v-100h-100v100h100zM400 500h100v-100h-100v100z" />
    <glyph glyph-name="N" unicode="N" horiz-adv-x="600" 
d="M0 0v700h100v-100h100v-100h-100v-500h-100zM500 700v-700h-100v300h-100v100h100v300h100zM300 500v-100h-100v100h100z" />
    <glyph glyph-name="O" unicode="O" horiz-adv-x="600" 
d="M500 100h-100v500h100v-500zM0 600h100v-500h-100v500zM100 0v100h300v-100h-300zM400 700v-100h-300v100h300z" />
    <glyph glyph-name="P" unicode="P" 
d="M0 0v700h300v-100h-200v-300h200v-100h-200v-200h-100zM400 300h-100v300h100v-300z" />
    <glyph glyph-name="Q" unicode="Q" horiz-adv-x="600" 
d="M500 100h-100v500h100v-500zM100 0v100h300v-200h-100v100h-200zM400 700v-100h-300v100h300zM500 -100v-100h-100v100h100zM0 100v500h100v-500h-100z" />
    <glyph glyph-name="R" unicode="R" 
d="M0 0v700h300v-100h-200v-300h200v-200h-100v100h-100v-200h-100zM400 100v-100h-100v100h100zM300 300v300h100v-300h-100z" />
    <glyph glyph-name="S" unicode="S" 
d="M0 0v100h300v-100h-300zM400 100h-100v200h100v-200zM400 700v-100h-300v100h300zM300 300h-100v100h100v-100zM100 400v100h100v-100h-100zM0 600h100v-100h-100v100z" />
    <glyph glyph-name="T" unicode="T" horiz-adv-x="400" 
d="M0 600v100h300v-100h-100v-600h-100v600h-100z" />
    <glyph glyph-name="U" unicode="U" 
d="M100 0v100h200v600h100v-700h-300zM0 100v600h100v-600h-100z" />
    <glyph glyph-name="V" unicode="V" horiz-adv-x="600" 
d="M500 700v-500h-100v500h100zM400 100h-100v100h100v-100zM200 0v100h100v-100h-100zM0 700h100v-500h-100v500zM100 100v100h100v-100h-100z" />
    <glyph glyph-name="W" unicode="W" horiz-adv-x="800" 
d="M0 0v700h100v-500h100v-100h-100v-100h-100zM500 100v100h100v500h100v-700h-100v100h-100zM300 300v-100h-100v100h100zM300 400h100v-100h-100v100zM500 300v-100h-100v100h100z" />
    <glyph glyph-name="X" unicode="X" horiz-adv-x="600" 
d="M0 0v200h100v-200h-100zM400 700h100v-200h-100v200zM300 300h100v-100h-100v100zM300 500h100v-100h-100v100zM0 700h100v-200h-100v200zM400 0v200h100v-200h-100zM200 200h-100v100h100v-100zM200 400h-100v100h100v-100zM300 400v-100h-100v100h100z" />
    <glyph glyph-name="Y" unicode="Y" horiz-adv-x="600" 
d="M500 700v-300h-100v300h100zM300 300v-300h-100v300h100zM0 700h100v-300h-100v300zM300 400h100v-100h-100v100zM100 400h100v-100h-100v100z" />
    <glyph glyph-name="Z" unicode="Z" horiz-adv-x="600" 
d="M0 0v200h100v-100h400v-100h-500zM500 700v-200h-100v100h-400v100h500zM300 300h-100v100h100v-100zM300 500h100v-100h-100v100zM100 200v100h100v-100h-100z" />
    <glyph glyph-name="bracketleft" unicode="[" horiz-adv-x="300" 
d="M0 -100v800h200v-100h-100v-600h100v-100h-200z" />
    <glyph glyph-name="backslash" unicode="\" horiz-adv-x="800" 
d="M500 100v100h100v-100h-100zM300 300v100h100v-100h-100zM300 500v-100h-100v100h100zM0 700h100v-100h-100v100zM500 300v-100h-100v100h100zM600 100h100v-100h-100v100zM100 600h100v-100h-100v100z" />
    <glyph glyph-name="bracketright" unicode="]" horiz-adv-x="300" 
d="M0 0h100v600h-100v100h200v-800h-200v100z" />
    <glyph glyph-name="asciicircum" unicode="^" horiz-adv-x="600" 
d="M300 300v100h100v-100h-100zM300 500v-100h-100v100h100zM500 300v-100h-100v100h100zM100 400h100v-100h-100v100zM0 200v100h100v-100h-100z" />
    <glyph glyph-name="underscore" unicode="_" horiz-adv-x="900" 
d="M800 -200h-900v100h900v-100z" />
    <glyph glyph-name="grave" unicode="`" horiz-adv-x="400" 
d="M0 600v100h100v-100h-100zM100 600h100v-100h-100v100zM200 400v100h100v-100h-100z" />
    <glyph glyph-name="a" unicode="a" 
d="M400 500v-500h-100v400h-200v100h300zM100 400v-300h-100v300h100zM100 0v100h100v-100h-100z" />
    <glyph glyph-name="b" unicode="b" 
d="M0 0v700h100v-200h200v-100h-200v-300h200v-100h-300zM400 100h-100v300h100v-300z" />
    <glyph glyph-name="c" unicode="c" 
d="M400 100v-100h-300v100h300zM300 300v100h100v-100h-100zM300 500v-100h-200v100h200zM0 100v300h100v-300h-100z" />
    <glyph glyph-name="d" unicode="d" 
d="M100 400v100h200v200h100v-700h-300v100h200v300h-200zM0 400h100v-300h-100v300z" />
    <glyph glyph-name="e" unicode="e" 
d="M400 100v-100h-300v100h300zM300 300v100h100v-200h-300v-100h-100v300h100v-100h200zM300 500v-100h-200v100h200z" />
    <glyph glyph-name="f" unicode="f" horiz-adv-x="300" 
d="M0 0v600h100v-100h100v-100h-100v-400h-100zM100 600v100h100v-100h-100z" />
    <glyph glyph-name="g" unicode="g" 
d="M100 0v100h200v300h-200v100h300v-600h-100v100h-200zM200 -100h100v-100h-100v100zM0 100v300h100v-300h-100z" />
    <glyph glyph-name="h" unicode="h" 
d="M0 0v700h100v-200h200v-100h-200v-400h-100zM400 400v-400h-100v400h100z" />
    <glyph glyph-name="i" unicode="i" horiz-adv-x="200" 
d="M0 0v500h100v-500h-100zM0 600v100h100v-100h-100z" />
    <glyph glyph-name="j" unicode="j" horiz-adv-x="200" 
d="M0 -100v-100h-100v100h100zM0 600v100h100v-100h-100zM100 -100h-100v600h100v-600z" />
    <glyph glyph-name="k" unicode="k" 
d="M0 0v700h100v-400h100v-100h-100v-200h-100zM400 100v-100h-100v100h100zM300 300h-100v100h100v-100zM300 500h100v-100h-100v100zM300 200v-100h-100v100h100z" />
    <glyph glyph-name="l" unicode="l" horiz-adv-x="200" 
d="M0 0v700h100v-700h-100z" />
    <glyph glyph-name="m" unicode="m" horiz-adv-x="800" 
d="M0 0v500h300v-100h-200v-400h-100zM700 400v-400h-100v400h100zM600 500v-100h-200v100h200zM400 0h-100v400h100v-400z" />
    <glyph glyph-name="n" unicode="n" 
d="M0 0v500h300v-100h-200v-400h-100zM400 400v-400h-100v400h100z" />
    <glyph glyph-name="o" unicode="o" horiz-adv-x="600" 
d="M500 100h-100v300h100v-300zM400 500v-100h-300v100h300zM100 400v-300h-100v300h100zM400 100v-100h-300v100h300z" />
    <glyph glyph-name="p" unicode="p" 
d="M0 -200v700h300v-100h-200v-300h200v-100h-200v-200h-100zM400 100h-100v300h100v-300z" />
    <glyph glyph-name="q" unicode="q" 
d="M400 500v-700h-100v200h-200v100h200v300h-200v100h300zM100 400v-300h-100v300h100z" />
    <glyph glyph-name="r" unicode="r" horiz-adv-x="300" 
d="M0 0v400h100v-400h-100zM100 400v100h100v-100h-100z" />
    <glyph glyph-name="s" unicode="s" horiz-adv-x="400" 
d="M0 0v100h200v-100h-200zM300 500v-100h-200v100h200zM300 200v-100h-100v100h100zM100 400v-100h-100v100h100zM100 200v100h100v-100h-100z" />
    <glyph glyph-name="t" unicode="t" horiz-adv-x="300" 
d="M100 400v-300h-100v500h100v-100h100v-100h-100zM100 0v100h100v-100h-100z" />
    <glyph glyph-name="u" unicode="u" 
d="M400 500v-500h-300v100h200v400h100zM0 100v400h100v-400h-100z" />
    <glyph glyph-name="v" unicode="v" horiz-adv-x="600" 
d="M400 100h-100v100h100v-100zM200 0v100h100v-100h-100zM100 100v100h100v-100h-100zM0 200v300h100v-300h-100zM400 500h100v-300h-100v300z" />
    <glyph glyph-name="w" unicode="w" horiz-adv-x="800" 
d="M600 500h100v-400h-100v400zM100 0v100h200v-100h-200zM400 100h200v-100h-200v100zM300 500h100v-400h-100v400zM0 100v400h100v-400h-100z" />
    <glyph glyph-name="x" unicode="x" horiz-adv-x="600" 
d="M500 100v-100h-100v100h100zM0 0v100h100v-100h-100zM300 300v-100h-100v100h100zM100 100v100h100v-100h-100zM500 500v-100h-100v100h100zM0 400v100h100v-100h-100zM300 100v100h100v-100h-100zM200 400v-100h-100v100h100zM400 400v-100h-100v100h100z" />
    <glyph glyph-name="y" unicode="y" 
d="M100 0v100h200v400h100v-600h-100v100h-200zM200 -100h100v-100h-100v100zM0 100v400h100v-400h-100z" />
    <glyph glyph-name="z" unicode="z" horiz-adv-x="600" 
d="M0 0v200h100v-100h300v-100h-400zM300 300h-100v100h-200v100h400v-100h-100v-100zM100 200v100h100v-100h-100z" />
    <glyph glyph-name="braceleft" unicode="{" horiz-adv-x="400" 
d="M100 0v200h100v-200h-100zM200 -100v100h100v-100h-100zM200 700h100v-100h-100v100zM0 200v200h100v-200h-100zM100 400v200h100v-200h-100z" />
    <glyph glyph-name="bar" unicode="|" horiz-adv-x="200" 
d="M0 -200v900h100v-900h-100z" />
    <glyph glyph-name="braceright" unicode="}" horiz-adv-x="400" 
d="M0 0h100v-100h-100v100zM100 0v200h100v-200h-100zM0 700h100v-100h-100v100zM300 200h-100v200h100v-200zM100 400v200h100v-200h-100z" />
    <glyph glyph-name="asciitilde" unicode="~" horiz-adv-x="600" 
d="M500 700v-100h-100v100h100zM100 700h100v-100h-100v100zM400 500h-200v100h200v-100zM0 600h100v-100h-100v100z" />
    <glyph glyph-name="nonbreakingspace" unicode="&#xa0;" 
 />
    <glyph glyph-name="exclamdown" unicode="&#xa1;" horiz-adv-x="200" 
d="M0 -100v500h100v-500h-100zM0 600h100v-100h-100v100z" />
    <glyph glyph-name="cent" unicode="&#xa2;" horiz-adv-x="600" 
d="M500 100v-100h-200v-100h-100v100h-100v100h100v300h-100v100h300v-100h-100v-300h200zM0 100v300h100v-300h-100zM500 300h-100v100h100v-100z" />
    <glyph glyph-name="sterling" unicode="&#xa3;" 
d="M0 0v600h100v-200h200v-100h-200v-200h300v-100h-400zM300 500v100h100v-100h-100zM100 700h200v-100h-200v100z" />
    <glyph glyph-name="currency" unicode="&#xa4;" horiz-adv-x="600" 
d="M500 100h-100v100h100v-100zM300 300v100h-100v-100h100zM0 100v100h100v-100h-100zM0 600h100v-100h-100v100zM400 500v100h100v-100h-100zM100 200v300h300v-300h-300z" />
    <glyph glyph-name="yen" unicode="&#xa5;" horiz-adv-x="600" 
d="M500 100h-200v-100h-100v100h-200v100h200v100h100v-100h200v-100zM500 700v-300h-100v300h100zM300 300v100h100v-100h-100zM0 700h100v-300h-100v300zM100 400h100v-100h-100v100z" />
    <glyph glyph-name="brokenbar" unicode="&#xa6;" horiz-adv-x="200" 
d="M0 -200v400h100v-400h-100zM0 300v400h100v-400h-100z" />
    <glyph glyph-name="section" unicode="&#xa7;" 
d="M0 -100v100h300v-100h-300zM400 100v-100h-100v100h100zM400 700v-100h-300v100h300zM300 500v-100h-200v100h200zM100 100v100h200v-100h-200zM300 200v200h100v-200h-100zM0 600h100v-100h-100v100zM100 400v-200h-100v200h100z" />
    <glyph glyph-name="dieresis" unicode="&#xa8;" horiz-adv-x="400" 
d="M0 600v100h100v-100h-100zM200 600v100h100v-100h-100z" />
    <glyph glyph-name="copyright" unicode="&#xa9;" horiz-adv-x="900" 
d="M500 100h-200v100h200v-100zM600 500v100h100v-100h-100zM200 0h-100v100h100v-100zM300 500h200v-100h-200v100zM600 600h-400v100h400v-100zM100 100h-100v400h100v-400zM600 100h100v-100h-100v100zM100 600h100v-100h-100v100zM200 200v200h100v-200h-100zM600 -100
h-400v100h400v-100zM700 500h100v-400h-100v400z" />
    <glyph glyph-name="ordfeminine" unicode="&#xaa;" 
d="M400 100h-400v100h400v-100zM400 700v-400h-100v300h-200v100h300zM100 400h-100v200h100v-200zM200 400v-100h-100v100h100z" />
    <glyph glyph-name="guillemotleft" unicode="&#xab;" horiz-adv-x="700" 
d="M500 100v100h100v-100h-100zM600 500h-100v100h100v-100zM300 300v100h100v-100h-100zM300 500h-100v100h100v-100zM500 300v-100h-100v100h100zM500 500v-100h-100v100h100zM0 400h100v-100h-100v100zM300 100h-100v100h100v-100zM200 200h-100v100h100v-100zM200 400
h-100v100h100v-100z" />
    <glyph glyph-name="logicalnot" unicode="&#xac;" horiz-adv-x="600" 
d="M500 100h-100v200h-400v100h500v-300z" />
    <glyph glyph-name="hyphen" unicode="&#xad;" 
d="M0 200v100h400v-100h-400z" />
    <glyph glyph-name="registered" unicode="&#xae;" horiz-adv-x="900" 
d="M500 100v100h100v-100h-100zM600 300h-100v100h100v-100zM600 500v100h100v-100h-100zM300 300h200v-100h-200v-100h-100v400h300v-100h-200v-100zM200 0h-100v100h100v-100zM600 600h-400v100h400v-100zM100 100h-100v400h100v-400zM600 100h100v-100h-100v100zM100 600
h100v-100h-100v100zM600 -100h-400v100h400v-100zM700 500h100v-400h-100v400z" />
    <glyph glyph-name="macron" unicode="&#xaf;" horiz-adv-x="900" 
d="M-100 700h900v-100h-900v100z" />
    <glyph glyph-name="degree" unicode="&#xb0;" 
d="M100 400h-100v200h100v-200zM100 600v100h200v-100h-200zM300 300h-200v100h200v-100zM400 400h-100v200h100v-200z" />
    <glyph glyph-name="plusminus" unicode="&#xb1;" horiz-adv-x="600" 
d="M500 100v-100h-500v100h200v200h-200v100h200v200h100v-200h200v-100h-200v-200h200z" />
    <glyph glyph-name="twosuperior" unicode="&#xb2;" horiz-adv-x="400" 
d="M300 300h-300v100h100v100h100v-100h100v-100zM300 500h-100v100h100v-100zM0 700h200v-100h-200v100z" />
    <glyph glyph-name="threesuperior" unicode="&#xb3;" horiz-adv-x="400" 
d="M0 700h200v-100h100v-200h-100v100h-100v100h-100v100zM0 400h200v-100h-200v100z" />
    <glyph glyph-name="acute" unicode="&#xb4;" horiz-adv-x="400" 
d="M100 400h-100v100h100v-100zM100 600h100v-100h-100v100zM200 600v100h100v-100h-100z" />
    <glyph glyph-name="mu" unicode="&#xb5;" 
d="M0 -200v700h100v-400h200v400h100v-500h-300v-200h-100z" />
    <glyph glyph-name="paragraph" unicode="&#xb6;" horiz-adv-x="700" 
d="M300 300v300h-200v100h500v-700h-100v200h-100v-200h-100v200h-200v100h200zM500 300v300h-100v-300h100zM0 600h100v-300h-100v300z" />
    <glyph glyph-name="periodcentered" unicode="&#xb7;" horiz-adv-x="200" 
d="M100 400v-100h-100v100h100z" />
    <glyph glyph-name="cedilla" unicode="&#xb8;" horiz-adv-x="300" 
d="M0 -100h100v-100h-100v100zM100 0h100v-100h-100v100z" />
    <glyph glyph-name="onesuperior" unicode="&#xb9;" horiz-adv-x="300" 
d="M0 600h100v100h100v-400h-100v200h-100v100z" />
    <glyph glyph-name="ordmasculine" unicode="&#xba;" 
d="M400 100h-400v100h400v-100zM300 300h-200v100h200v-100zM100 700h200v-100h-200v100zM300 600h100v-200h-100v200zM100 400h-100v200h100v-200z" />
    <glyph glyph-name="guillemotright" unicode="&#xbb;" horiz-adv-x="700" 
d="M600 300h-100v100h100v-100zM300 300h-100v100h100v-100zM300 500v100h100v-100h-100zM100 100h-100v100h100v-100zM500 300v-100h-100v100h100zM500 500v-100h-100v100h100zM100 600v-100h-100v100h100zM300 100v100h100v-100h-100zM200 200h-100v100h100v-100zM200 400
h-100v100h100v-100z" />
    <glyph glyph-name="onequarter" unicode="&#xbc;" horiz-adv-x="1000" 
d="M700 400h200v-400h-100v100h-200v200h100v-100h100v100h-100v100zM600 500v100h100v-100h-100zM300 300h100v-100h-100v100zM200 700v-400h-100v200h-100v100h100v100h100zM500 300h-100v100h100v-100zM500 500h100v-100h-100v100zM300 100h-100v100h100v-100z" />
    <glyph glyph-name="onehalf" unicode="&#xbd;" horiz-adv-x="1000" 
d="M600 300v100h200v-100h-200zM600 500v100h100v-100h-100zM700 200h100v-100h100v-100h-300v100h100v100zM900 300v-100h-100v100h100zM300 300h100v-100h-100v100zM200 700v-400h-100v200h-100v100h100v100h100zM500 300h-100v100h100v-100zM500 500h100v-100h-100v100z
M300 100h-100v100h100v-100z" />
    <glyph glyph-name="threequarters" unicode="&#xbe;" horiz-adv-x="1000" 
d="M700 400h200v-400h-100v100h-200v200h100v-100h100v100h-100v100zM600 500v100h100v-100h-100zM300 300h100v-100h-100v100zM0 700h200v-100h100v-200h-100v100h-100v100h-100v100zM500 300h-100v100h100v-100zM500 500h100v-100h-100v100zM0 400h200v-100h-200v100z
M300 100h-100v100h100v-100z" />
    <glyph glyph-name="questiondown" unicode="&#xbf;" horiz-adv-x="600" 
d="M0 0v100h100v-100h-100zM500 100v-100h-100v100h100zM100 -100v100h300v-100h-300zM300 500h-100v100h100v-100zM100 100v100h100v-100h-100zM300 200h-100v200h100v-200z" />
    <glyph glyph-name="Agrave" unicode="&#xc0;" horiz-adv-x="600" 
d="M0 0v500h100v-200h300v200h100v-500h-100v200h-300v-200h-100zM200 1000v-100h-100v100h100zM300 500v100h100v-100h-100zM200 700h100v-100h-100v100zM200 800v100h100v-100h-100zM100 600h100v-100h-100v100z" />
    <glyph glyph-name="Aacute" unicode="&#xc1;" horiz-adv-x="600" 
d="M0 0v500h100v-200h300v200h100v-500h-100v200h-300v-200h-100zM300 500v100h100v-100h-100zM200 700h100v-100h-100v100zM400 1000v-100h-100v100h100zM200 800v100h100v-100h-100zM100 600h100v-100h-100v100z" />
    <glyph glyph-name="Acircumflex" unicode="&#xc2;" horiz-adv-x="600" 
d="M0 0v500h100v-200h300v200h100v-500h-100v200h-300v-200h-100zM200 1000h100v-100h-100v100zM100 900h100v-100h-100v100zM300 500v100h100v-100h-100zM200 700h100v-100h-100v100zM100 600h100v-100h-100v100zM300 900h100v-100h-100v100z" />
    <glyph glyph-name="Atilde" unicode="&#xc3;" horiz-adv-x="600" 
d="M0 0v500h100v-200h300v200h100v-500h-100v200h-300v-200h-100zM200 1000v-100h-100v100h100zM100 900v-100h-100v100h100zM300 500v100h100v-100h-100zM400 1000h100v-100h-100v100zM200 700h100v-100h-100v100zM200 800v100h200v-100h-200zM100 600h100v-100h-100v100z
" />
    <glyph glyph-name="Adieresis" unicode="&#xc4;" horiz-adv-x="600" 
d="M0 0v500h100v-200h300v200h100v-500h-100v200h-300v-200h-100zM100 900h100v-100h-100v100zM300 500v100h100v-100h-100zM200 700h100v-100h-100v100zM100 600h100v-100h-100v100zM300 900h100v-100h-100v100z" />
    <glyph glyph-name="Aring" unicode="&#xc5;" horiz-adv-x="600" 
d="M0 0v500h100v-200h300v200h100v-500h-100v200h-300v-200h-100zM400 700h-100v100h100v-100zM300 500v100h100v-100h-100zM200 700h100v-100h-100v100zM200 800v100h100v-100h-100zM100 600h100v-100h-100v100zM100 700v100h100v-100h-100z" />
    <glyph glyph-name="AE" unicode="&#xc6;" horiz-adv-x="700" 
d="M0 0v500h100v-200h200v300h-100v100h400v-100h-200v-200h200v-100h-200v-200h200v-100h-300v200h-200v-200h-100zM100 600h100v-100h-100v100z" />
    <glyph glyph-name="Ccedilla" unicode="&#xc7;" 
d="M100 -100h100v-100h-100v100zM400 100v-100h-100v-100h-100v100h-100v100h300zM300 500v100h100v-100h-100zM0 100v500h100v-500h-100zM100 700h200v-100h-200v100z" />
    <glyph glyph-name="Egrave" unicode="&#xc8;" horiz-adv-x="400" 
d="M0 0v700h300v-100h-200v-200h200v-100h-200v-200h200v-100h-300zM200 900v-100h-100v100h100zM100 1000v-100h-100v100h100z" />
    <glyph glyph-name="Eacute" unicode="&#xc9;" horiz-adv-x="400" 
d="M0 0v700h300v-100h-200v-200h200v-100h-200v-200h200v-100h-300zM200 900v-100h-100v100h100zM200 1000h100v-100h-100v100z" />
    <glyph glyph-name="Ecircumflex" unicode="&#xca;" horiz-adv-x="400" 
d="M0 0v700h300v-100h-200v-200h200v-100h-200v-200h200v-100h-300zM200 900h-100v100h100v-100zM100 900v-100h-100v100h100zM300 800h-100v100h100v-100z" />
    <glyph glyph-name="Edieresis" unicode="&#xcb;" horiz-adv-x="400" 
d="M0 0v700h300v-100h-200v-200h200v-100h-200v-200h200v-100h-300zM200 900h100v-100h-100v100zM100 900v-100h-100v100h100z" />
    <glyph glyph-name="Igrave" unicode="&#xcc;" horiz-adv-x="200" 
d="M0 0v700h100v-700h-100zM100 900v-100h-100v100h100zM0 1000v-100h-100v100h100z" />
    <glyph glyph-name="Iacute" unicode="&#xcd;" horiz-adv-x="200" 
d="M0 0v700h100v-700h-100zM200 900h-100v100h100v-100zM100 900v-100h-100v100h100z" />
    <glyph glyph-name="Icircumflex" unicode="&#xce;" horiz-adv-x="200" 
d="M0 0v700h100v-700h-100zM200 900v-100h-100v100h100zM100 1000v-100h-100v100h100zM0 900v-100h-100v100h100z" />
    <glyph glyph-name="Idieresis" unicode="&#xcf;" horiz-adv-x="200" 
d="M0 0v700h100v-700h-100zM200 900v-100h-100v100h100zM0 900v-100h-100v100h100z" />
    <glyph glyph-name="Eth" unicode="&#xd0;" horiz-adv-x="600" 
d="M500 100h-100v500h100v-500zM100 0v300h-100v100h100v300h300v-100h-200v-200h100v-100h-100v-200h200v-100h-300z" />
    <glyph glyph-name="Ntilde" unicode="&#xd1;" horiz-adv-x="600" 
d="M0 0v700h100v-100h100v-100h-100v-500h-100zM400 700h100v-700h-100v300h-100v100h100v300zM200 1000v-100h-100v100h100zM100 900v-100h-100v100h100zM300 500v-100h-100v100h100zM400 1000h100v-100h-100v100zM200 800v100h200v-100h-200z" />
    <glyph glyph-name="Ograve" unicode="&#xd2;" horiz-adv-x="600" 
d="M500 100h-100v500h100v-500zM100 0v100h300v-100h-300zM200 900h-100v100h100v-100zM400 700v-100h-300v100h300zM0 100v500h100v-500h-100zM300 800h-100v100h100v-100z" />
    <glyph glyph-name="Oacute" unicode="&#xd3;" horiz-adv-x="600" 
d="M500 100h-100v500h100v-500zM100 0v100h300v-100h-300zM200 900h100v-100h-100v100zM400 700v-100h-300v100h300zM0 100v500h100v-500h-100zM400 1000v-100h-100v100h100z" />
    <glyph glyph-name="Ocircumflex" unicode="&#xd4;" horiz-adv-x="600" 
d="M500 100h-100v500h100v-500zM200 900v-100h-100v100h100zM100 0v100h300v-100h-300zM200 1000h100v-100h-100v100zM400 700v-100h-300v100h300zM0 100v500h100v-500h-100zM300 800v100h100v-100h-100z" />
    <glyph glyph-name="Otilde" unicode="&#xd5;" horiz-adv-x="600" 
d="M500 100h-100v500h100v-500zM400 700v-100h-300v100h300zM200 1000v-100h-100v100h100zM100 900v-100h-100v100h100zM100 100h300v-100h-300v100zM400 1000h100v-100h-100v100zM200 800v100h200v-100h-200zM100 600v-500h-100v500h100z" />
    <glyph glyph-name="Odieresis" unicode="&#xd6;" horiz-adv-x="600" 
d="M500 100h-100v500h100v-500zM100 0v100h300v-100h-300zM200 900v-100h-100v100h100zM400 700v-100h-300v100h300zM0 100v500h100v-500h-100zM300 800v100h100v-100h-100z" />
    <glyph glyph-name="multiply" unicode="&#xd7;" horiz-adv-x="600" 
d="M500 100h-100v100h100v-100zM300 300h100v-100h-100v100zM300 500h100v-100h-100v100zM100 100h-100v100h100v-100zM500 500h-100v100h100v-100zM100 600v-100h-100v100h100zM200 200h-100v100h100v-100zM200 400h-100v100h100v-100zM300 400v-100h-100v100h100z" />
    <glyph glyph-name="Oslash" unicode="&#xd8;" horiz-adv-x="600" 
d="M500 100h-100v300h-100v100h100v100h100v-500zM400 100v-100h-300v100h300zM400 700v-100h-300v100h300zM300 300h-100v100h100v-100zM0 100v500h100v-300h100v-100h-100v-100h-100z" />
    <glyph glyph-name="Ugrave" unicode="&#xd9;" 
d="M100 0v100h200v600h100v-700h-300zM200 900h-100v100h100v-100zM0 100v600h100v-600h-100zM300 800h-100v100h100v-100z" />
    <glyph glyph-name="Uacute" unicode="&#xda;" 
d="M100 0v100h200v600h100v-700h-300zM200 900v-100h-100v100h100zM200 1000h100v-100h-100v100zM0 100v600h100v-600h-100z" />
    <glyph glyph-name="Ucircumflex" unicode="&#xdb;" 
d="M100 0v100h200v600h100v-700h-300zM100 1000h200v-100h-200v100zM100 900v-100h-100v100h100zM0 100v600h100v-600h-100zM300 800v100h100v-100h-100z" />
    <glyph glyph-name="Udieresis" unicode="&#xdc;" 
d="M100 0v100h200v600h100v-700h-300zM100 900v-100h-100v100h100zM0 100v600h100v-600h-100zM300 800v100h100v-100h-100z" />
    <glyph glyph-name="Yacute" unicode="&#xdd;" horiz-adv-x="600" 
d="M500 700v-300h-100v300h100zM200 900h100v-100h-100v100zM300 300v-300h-100v300h100zM0 700h100v-300h-100v300zM400 1000v-100h-100v100h100zM300 400h100v-100h-100v100zM100 400h100v-100h-100v100z" />
    <glyph glyph-name="Thorn" unicode="&#xde;" 
d="M0 0v700h100v-100h200v-100h-200v-300h200v-100h-200v-100h-100zM300 500h100v-300h-100v300z" />
    <glyph glyph-name="germandbls" unicode="&#xdf;" 
d="M0 0v600h100v-600h-100zM400 100h-100v200h100v-200zM300 300h-100v100h100v-100zM200 0v100h100v-100h-100zM100 700h200v-100h-200v100zM300 600h100v-200h-100v200z" />
    <glyph glyph-name="agrave" unicode="&#xe0;" 
d="M100 0v100h100v-100h-100zM0 100v300h100v-300h-100zM400 0h-100v400h-200v100h300v-500zM100 700v100h100v-100h-100zM200 700h100v-100h-100v100z" />
    <glyph glyph-name="aacute" unicode="&#xe1;" 
d="M100 0v100h100v-100h-100zM0 100v300h100v-300h-100zM400 0h-100v400h-200v100h300v-500zM100 700h100v-100h-100v100zM300 800v-100h-100v100h100z" />
    <glyph glyph-name="acircumflex" unicode="&#xe2;" 
d="M100 0v100h100v-100h-100zM400 700v-100h-100v100h100zM0 100v300h100v-300h-100zM400 0h-100v400h-200v100h300v-500zM300 800v-100h-100v100h100zM100 700h100v-100h-100v100z" />
    <glyph glyph-name="atilde" unicode="&#xe3;" 
d="M400 700v-100h-200v100h200zM200 0h-100v100h100v-100zM0 700h100v-100h-100v100zM400 0h-100v400h-200v100h300v-500zM100 100h-100v300h100v-300zM200 700h-100v100h100v-100zM400 800h100v-100h-100v100z" />
    <glyph glyph-name="adieresis" unicode="&#xe4;" 
d="M100 0v100h100v-100h-100zM400 700v-100h-100v100h100zM0 100v300h100v-300h-100zM400 0h-100v400h-200v100h300v-500zM100 700h100v-100h-100v100z" />
    <glyph glyph-name="aring" unicode="&#xe5;" 
d="M100 0v100h100v-100h-100zM400 700v-100h-100v100h100zM300 500h100v-500h-100v400h-200v100h100v100h100v-100zM0 100v300h100v-300h-100zM300 800v-100h-100v100h100zM100 700h100v-100h-100v100z" />
    <glyph glyph-name="ae" unicode="&#xe6;" horiz-adv-x="800" 
d="M700 400v-200h-300v-100h-100v300h-200v100h500v-100h-200v-100h200v100h100zM400 100h300v-100h-300v100zM100 0v100h100v-100h-100zM0 100v300h100v-300h-100z" />
    <glyph glyph-name="ccedilla" unicode="&#xe7;" 
d="M100 -100h100v-100h-100v100zM100 0v100h300v-100h-100v-100h-100v100h-100zM300 300v100h100v-100h-100zM300 500v-100h-200v100h200zM0 100v300h100v-300h-100z" />
    <glyph glyph-name="egrave" unicode="&#xe8;" 
d="M100 0v100h300v-100h-300zM300 300v100h100v-200h-300v-100h-100v300h100v-100h200zM300 500v-100h-200v100h200zM100 700v100h100v-100h-100zM200 700h100v-100h-100v100z" />
    <glyph glyph-name="eacute" unicode="&#xe9;" 
d="M100 0v100h300v-100h-300zM300 300v100h100v-200h-300v-100h-100v300h100v-100h200zM300 500v-100h-200v100h200zM300 800v-100h-100v100h100zM100 700h100v-100h-100v100z" />
    <glyph glyph-name="ecircumflex" unicode="&#xea;" 
d="M400 700v-100h-100v100h100zM300 300v100h100v-200h-300v-100h-100v300h100v-100h200zM300 500v-100h-200v100h200zM0 700h100v-100h-100v100zM400 0h-300v100h300v-100zM300 800v-100h-200v100h200z" />
    <glyph glyph-name="edieresis" unicode="&#xeb;" 
d="M100 0v100h300v-100h-300zM400 700v-100h-100v100h100zM300 300v100h100v-200h-300v-100h-100v300h100v-100h200zM300 500v-100h-200v100h200zM0 700h100v-100h-100v100z" />
    <glyph glyph-name="igrave" unicode="&#xec;" horiz-adv-x="200" 
d="M0 0v500h100v-500h-100zM0 600v100h100v-100h-100zM-100 700v100h100v-100h-100z" />
    <glyph glyph-name="iacute" unicode="&#xed;" horiz-adv-x="200" 
d="M0 0v500h100v-500h-100zM0 600v100h100v-100h-100zM200 800v-100h-100v100h100z" />
    <glyph glyph-name="icircumflex" unicode="&#xee;" horiz-adv-x="200" 
d="M0 0v500h100v-500h-100zM0 700v-100h-100v100h100zM100 700h-100v100h100v-100zM200 700v-100h-100v100h100z" />
    <glyph glyph-name="idieresis" unicode="&#xef;" horiz-adv-x="200" 
d="M0 0v500h100v-500h-100zM0 600h-100v100h100v-100zM100 600v100h100v-100h-100z" />
    <glyph glyph-name="eth" unicode="&#xf0;" 
d="M500 700v-100h-100v100h100zM100 0v100h200v-100h-200zM400 100h-100v300h-200v100h200v100h100v-500zM0 100v300h100v-300h-100zM100 700h200v-100h-200v100z" />
    <glyph glyph-name="ntilde" unicode="&#xf1;" 
d="M0 0v500h300v-100h-200v-400h-100zM400 700h-100v100h100v-100zM0 700h100v-100h-100v100zM400 0h-100v400h100v-400zM100 700v100h100v-100h-100zM200 700h100v-100h-100v100z" />
    <glyph glyph-name="ograve" unicode="&#xf2;" horiz-adv-x="600" 
d="M500 100h-100v300h100v-300zM100 0v100h300v-100h-300zM0 100v300h100v-300h-100zM100 700v100h100v-100h-100zM200 700h100v-100h-100v100zM400 500v-100h-300v100h300z" />
    <glyph glyph-name="oacute" unicode="&#xf3;" horiz-adv-x="600" 
d="M500 100h-100v300h100v-300zM100 0v100h300v-100h-300zM400 700h-100v100h100v-100zM0 100v300h100v-300h-100zM200 700h100v-100h-100v100zM400 500v-100h-300v100h300z" />
    <glyph glyph-name="ocircumflex" unicode="&#xf4;" horiz-adv-x="600" 
d="M500 100h-100v300h100v-300zM100 0v100h300v-100h-300zM400 700v-100h-100v100h100zM0 100v300h100v-300h-100zM300 800v-100h-100v100h100zM100 700h100v-100h-100v100zM400 500v-100h-300v100h300z" />
    <glyph glyph-name="otilde" unicode="&#xf5;" horiz-adv-x="600" 
d="M500 100h-100v300h100v-300zM400 700v-100h-200v100h200zM0 700h100v-100h-100v100zM400 0h-300v100h300v-100zM100 100h-100v300h100v-300zM200 700h-100v100h100v-100zM100 500h300v-100h-300v100zM400 800h100v-100h-100v100z" />
    <glyph glyph-name="odieresis" unicode="&#xf6;" horiz-adv-x="600" 
d="M500 100h-100v300h100v-300zM100 0v100h300v-100h-300zM400 700v-100h-100v100h100zM0 100v300h100v-300h-100zM100 700h100v-100h-100v100zM400 500v-100h-300v100h300z" />
    <glyph glyph-name="divide" unicode="&#xf7;" horiz-adv-x="600" 
d="M500 300v-100h-500v100h500zM300 100v-100h-100v100h100zM200 400v100h100v-100h-100z" />
    <glyph glyph-name="oslash" unicode="&#xf8;" horiz-adv-x="600" 
d="M500 100h-100v200h-100v100h-200v100h300v-100h100v-300zM100 0v100h-100v300h100v-200h100v-100h200v-100h-300zM300 300v-100h-100v100h100z" />
    <glyph glyph-name="ugrave" unicode="&#xf9;" 
d="M100 0v100h200v400h100v-500h-300zM0 100v400h100v-400h-100zM100 700v100h100v-100h-100zM200 700h100v-100h-100v100z" />
    <glyph glyph-name="uacute" unicode="&#xfa;" 
d="M100 0v100h200v400h100v-500h-300zM0 100v400h100v-400h-100zM100 700h100v-100h-100v100zM300 800v-100h-100v100h100z" />
    <glyph glyph-name="ucircumflex" unicode="&#xfb;" 
d="M100 0v100h200v400h100v-500h-300zM400 700v-100h-100v100h100zM0 100v400h100v-400h-100zM0 700h100v-100h-100v100zM300 800v-100h-200v100h200z" />
    <glyph glyph-name="udieresis" unicode="&#xfc;" 
d="M100 0v100h200v400h100v-500h-300zM400 700v-100h-100v100h100zM0 100v400h100v-400h-100zM0 700h100v-100h-100v100z" />
    <glyph glyph-name="yacute" unicode="&#xfd;" 
d="M100 0v100h200v400h100v-600h-100v100h-200zM200 -100h100v-100h-100v100zM0 100v400h100v-400h-100zM300 800v-100h-100v100h100zM100 700h100v-100h-100v100z" />
    <glyph glyph-name="thorn" unicode="&#xfe;" 
d="M100 0v-200h-100v900h100v-200h200v-100h-200v-300h200v-100h-200zM400 100h-100v300h100v-300z" />
    <glyph glyph-name="ydieresis" unicode="&#xff;" 
d="M100 0v100h200v400h100v-600h-100v100h-200zM400 700v-100h-100v100h100zM200 -100h100v-100h-100v100zM0 100v400h100v-400h-100zM0 700h100v-100h-100v100z" />
    <glyph glyph-name="dotlessi" unicode="&#x131;" horiz-adv-x="200" 
d="M0 0v500h100v-500h-100z" />
    <glyph glyph-name="IJ" unicode="&#x132;" 
d="M0 0v700h100v-600h200v-100h-300zM400 100h-100v600h100v-600z" />
    <glyph glyph-name="ij" unicode="&#x133;" horiz-adv-x="400" 
d="M0 0v500h100v-500h-100zM100 -100h100v-100h-100v100zM200 -100v600h100v-600h-100zM0 700h100v-100h-100v100zM200 700h100v-100h-100v100z" />
    <glyph glyph-name="Lslash" unicode="&#x141;" 
d="M100 0v300h-100v100h100v300h100v-200h100v-100h-100v-300h200v-100h-300z" />
    <glyph glyph-name="lslash" unicode="&#x142;" horiz-adv-x="400" 
d="M100 400v300h100v-200h100v-100h-100v-400h-100v300h-100v100h100z" />
    <glyph glyph-name="Eng" unicode="&#x14a;" horiz-adv-x="600" 
d="M0 0v700h100v-100h100v-100h-100v-500h-100zM500 700v-800h-100v400h-100v100h100v300h100zM300 500v-100h-100v100h100zM400 -100v-100h-100v100h100z" />
    <glyph glyph-name="eng" unicode="&#x14b;" 
d="M0 0v500h300v-100h-200v-400h-100zM200 -200v100h100v-100h-100zM400 400v-500h-100v500h100z" />
    <glyph glyph-name="OE" unicode="&#x152;" horiz-adv-x="700" 
d="M600 300h-200v-200h200v-100h-500v100h200v500h-200v100h500v-100h-200v-200h200v-100zM0 100v500h100v-500h-100z" />
    <glyph glyph-name="oe" unicode="&#x153;" horiz-adv-x="800" 
d="M700 400v-200h-300v-100h-100v300h100v-100h200v100h100zM400 100h300v-100h-300v100zM100 0v100h200v-100h-200zM600 500v-100h-200v100h200zM300 500v-100h-200v100h200zM0 100v300h100v-300h-100z" />
    <glyph glyph-name="Scaron" unicode="&#x160;" 
d="M0 0v100h300v-100h-300zM200 1000v-100h-100v100h100zM400 700v-100h-300v100h300zM300 300h100v-200h-100v200zM400 1000v-100h-100v100h100zM200 800v100h100v-100h-100zM100 600v-100h-100v100h100zM200 400h-100v100h100v-100zM300 400v-100h-100v100h100z" />
    <glyph glyph-name="scaron" unicode="&#x161;" horiz-adv-x="400" 
d="M0 0v100h200v-100h-200zM300 500v-100h-200v100h200zM0 700v100h100v-100h-100zM200 700v100h100v-100h-100zM100 600v100h100v-100h-100zM0 400h100v-100h-100v100zM200 200h-100v100h100v-100zM300 100h-100v100h100v-100z" />
    <glyph glyph-name="Ydieresis" unicode="&#x178;" horiz-adv-x="600" 
d="M500 700v-300h-100v300h100zM200 900v-100h-100v100h100zM300 300v-300h-100v300h100zM0 700h100v-300h-100v300zM300 800v100h100v-100h-100zM300 400h100v-100h-100v100zM100 400h100v-100h-100v100z" />
    <glyph glyph-name="Zcaron" unicode="&#x17d;" horiz-adv-x="600" 
d="M0 0v200h100v-100h400v-100h-500zM200 1000v-100h-100v100h100zM300 300h-100v100h100v-100zM300 500h100v-100h-100v100zM0 700h500v-200h-100v100h-400v100zM400 1000v-100h-100v100h100zM200 800v100h100v-100h-100zM200 200h-100v100h100v-100z" />
    <glyph glyph-name="zcaron" unicode="&#x17e;" horiz-adv-x="600" 
d="M0 0v200h100v-100h300v-100h-400zM400 700h-100v100h100v-100zM300 300h-100v100h-200v100h400v-100h-100v-100zM0 700v100h100v-100h-100zM300 600h-200v100h200v-100zM200 200h-100v100h100v-100z" />
    <glyph glyph-name="longs" unicode="&#x17f;" horiz-adv-x="300" 
d="M0 0v600h100v-600h-100zM100 600v100h100v-100h-100z" />
    <glyph glyph-name="florin" unicode="&#x192;" horiz-adv-x="400" 
d="M0 -100h100v-100h-100v100zM100 -100v500h-100v100h100v100h100v-100h100v-100h-100v-500h-100zM200 700h100v-100h-100v100z" />
    <glyph glyph-name="uni0237" unicode="&#x237;" horiz-adv-x="200" 
d="M0 -100v-100h-100v100h100zM100 -100h-100v600h100v-600z" />
    <glyph glyph-name="circumflex" unicode="&#x2c6;" horiz-adv-x="400" 
d="M0 600h100v-100h-100v100zM100 600v100h100v-100h-100zM200 600h100v-100h-100v100z" />
    <glyph glyph-name="caron" unicode="&#x2c7;" horiz-adv-x="400" 
d="M0 600v100h100v-100h-100zM100 600h100v-100h-100v100zM200 600v100h100v-100h-100z" />
    <glyph glyph-name="uni02CA" unicode="&#x2ca;" horiz-adv-x="300" 
d="M0 600h100v-100h-100v100zM100 600v100h100v-100h-100z" />
    <glyph glyph-name="uni02CB" unicode="&#x2cb;" horiz-adv-x="300" 
d="M0 600v100h100v-100h-100zM100 600h100v-100h-100v100z" />
    <glyph glyph-name="breve" unicode="&#x2d8;" 
d="M0 600v100h100v-100h-100zM400 700v-100h-100v100h100zM100 600h200v-100h-200v100z" />
    <glyph glyph-name="dotaccent" unicode="&#x2d9;" horiz-adv-x="200" 
d="M0 600v100h100v-100h-100z" />
    <glyph glyph-name="ring" unicode="&#x2da;" horiz-adv-x="400" 
d="M100 400v100h100v-100h-100zM0 600h100v-100h-100v100zM100 600v100h100v-100h-100zM200 600h100v-100h-100v100z" />
    <glyph glyph-name="ogonek" unicode="&#x2db;" horiz-adv-x="300" 
d="M0 0h100v-100h-100v100zM100 -200v100h100v-100h-100z" />
    <glyph glyph-name="tilde" unicode="&#x2dc;" horiz-adv-x="600" 
d="M500 700v-100h-100v100h100zM100 700h100v-100h-100v100zM400 500h-200v100h200v-100zM0 600h100v-100h-100v100z" />
    <glyph glyph-name="hungarumlaut" unicode="&#x2dd;" 
d="M400 700v-100h-100v100h100zM300 500h-100v100h100v-100zM100 700h100v-100h-100v100zM0 600h100v-100h-100v100z" />
    <glyph glyph-name="Omega" unicode="&#x3a9;" horiz-adv-x="600" 
d="M500 100v-100h-200v200h100v-100h100zM0 0v100h100v100h100v-200h-200zM400 700v-100h-300v100h300zM0 600h100v-400h-100v400zM500 600v-400h-100v400h100z" />
    <glyph glyph-name="pi" unicode="&#x3c0;" horiz-adv-x="700" 
d="M100 400h-100v100h600v-100h-100v-400h-100v400h-200v-400h-100v400z" />
    <glyph glyph-name="uni2010" unicode="&#x2010;" 
d="M0 200v100h400v-100h-400z" />
    <glyph glyph-name="uni2011" unicode="&#x2011;" 
d="M0 200v100h400v-100h-400z" />
    <glyph glyph-name="uni2012" unicode="&#x2012;" 
d="M0 200v100h400v-100h-400z" />
    <glyph glyph-name="endash" unicode="&#x2013;" 
d="M0 200v100h400v-100h-400z" />
    <glyph glyph-name="emdash" unicode="&#x2014;" horiz-adv-x="800" 
d="M0 200v100h700v-100h-700z" />
    <glyph glyph-name="afii00208" unicode="&#x2015;" horiz-adv-x="900" 
d="M-100 300h900v-100h-900v100z" />
    <glyph glyph-name="uni2016" unicode="&#x2016;" horiz-adv-x="400" 
d="M0 -200v900h100v-900h-100zM200 -200v900h100v-900h-100z" />
    <glyph glyph-name="underscoredbl" unicode="&#x2017;" horiz-adv-x="900" 
d="M-100 100h900v-100h-900v100zM800 -200h-900v100h900v-100z" />
    <glyph glyph-name="quoteleft" unicode="&#x2018;" horiz-adv-x="300" 
d="M100 400h-100v200h100v-200zM100 600v100h100v-100h-100z" />
    <glyph glyph-name="quoteright" unicode="&#x2019;" horiz-adv-x="300" 
d="M100 400h-100v100h100v-100zM100 500v200h100v-200h-100z" />
    <glyph glyph-name="quotesinglbase" unicode="&#x201a;" horiz-adv-x="300" 
d="M0 0h100v-100h-100v100zM100 0v100h100v-100h-100z" />
    <glyph glyph-name="quotereversed" unicode="&#x201b;" horiz-adv-x="300" 
d="M100 400v100h100v-100h-100zM100 500h-100v200h100v-200z" />
    <glyph glyph-name="quotedblleft" unicode="&#x201c;" 
d="M400 700v-100h-100v100h100zM100 700h100v-100h-100v100zM300 600v-200h-100v200h100zM100 400h-100v200h100v-200z" />
    <glyph glyph-name="quotedblright" unicode="&#x201d;" 
d="M400 700v-200h-100v200h100zM300 500v-100h-100v100h100zM100 700h100v-200h-100v200zM100 400h-100v100h100v-100z" />
    <glyph glyph-name="quotedblbase" unicode="&#x201e;" 
d="M0 -100v100h100v-100h-100zM100 0v100h100v-100h-100zM400 100v-100h-100v100h100zM200 0h100v-100h-100v100z" />
    <glyph glyph-name="uni201F" unicode="&#x201f;" 
d="M300 500h100v-100h-100v100zM0 700h100v-200h-100v200zM200 700h100v-200h-100v200zM100 400v100h100v-100h-100z" />
    <glyph glyph-name="dagger" unicode="&#x2020;" horiz-adv-x="400" 
d="M0 600h100v100h100v-100h100v-100h-100v-300h-100v300h-100v100z" />
    <glyph glyph-name="daggerdbl" unicode="&#x2021;" horiz-adv-x="400" 
d="M300 300h-100v-100h-100v100h-100v100h100v100h-100v100h100v100h100v-100h100v-100h-100v-100h100v-100z" />
    <glyph glyph-name="bullet" unicode="&#x2022;" 
d="M0 200v200h100v100h200v-100h100v-200h-100v-100h-200v100h-100z" />
    <glyph glyph-name="uni2023" unicode="&#x2023;" 
d="M200 200v-100h-200v400h200v-100h200v-200h-200z" />
    <glyph glyph-name="uni2024" unicode="&#x2024;" horiz-adv-x="200" 
d="M0 0v100h100v-100h-100z" />
    <glyph glyph-name="uni2025" unicode="&#x2025;" horiz-adv-x="400" 
d="M0 0v100h100v-100h-100zM300 100v-100h-100v100h100z" />
    <glyph glyph-name="ellipsis" unicode="&#x2026;" horiz-adv-x="600" 
d="M500 100v-100h-100v100h100zM0 0v100h100v-100h-100zM300 100v-100h-100v100h100z" />
    <glyph glyph-name="uni2027" unicode="&#x2027;" horiz-adv-x="200" 
d="M0 200v100h100v-100h-100z" />
    <glyph glyph-name="perthousand" unicode="&#x2030;" horiz-adv-x="900" 
d="M300 300h-100v100h100v-100zM800 200v-200h-200v200h200zM300 500h100v-100h-100v100zM0 700h200v-200h-200v200zM100 100h-100v100h100v-100zM500 500h-100v100h100v-100zM200 200h-100v100h100v-100zM500 0h-200v200h200v-200z" />
    <glyph glyph-name="uni2031" unicode="&#x2031;" horiz-adv-x="1200" 
d="M1100 0h-200v200h200v-200zM300 300h-100v100h100v-100zM800 200v-200h-200v200h200zM300 500h100v-100h-100v100zM0 700h200v-200h-200v200zM100 100h-100v100h100v-100zM500 500h-100v100h100v-100zM200 200h-100v100h100v-100zM500 0h-200v200h200v-200z" />
    <glyph glyph-name="guilsinglleft" unicode="&#x2039;" horiz-adv-x="400" 
d="M300 500h-100v100h100v-100zM300 200v-100h-100v100h100zM100 400v100h100v-100h-100zM0 400h100v-100h-100v100zM100 200v100h100v-100h-100z" />
    <glyph glyph-name="guilsinglright" unicode="&#x203a;" horiz-adv-x="400" 
d="M300 300h-100v100h100v-100zM0 100v100h100v-100h-100zM0 600h100v-100h-100v100zM100 400v100h100v-100h-100zM100 200v100h100v-100h-100z" />
    <glyph glyph-name="exclamdbl" unicode="&#x203c;" horiz-adv-x="400" 
d="M0 0v100h100v-100h-100zM200 0v100h100v-100h-100zM0 700h100v-500h-100v500zM200 700h100v-500h-100v500z" />
    <glyph glyph-name="uni203D" unicode="&#x203d;" horiz-adv-x="600" 
d="M400 700v-100h-100v-100h100v-100h-100v-200h-100v400h-100v100h300zM200 0v100h100v-100h-100zM400 500v100h100v-100h-100zM0 600h100v-100h-100v100z" />
    <glyph glyph-name="fraction" unicode="&#x2044;" horiz-adv-x="700" 
d="M0 0v100h100v-100h-100zM600 500h-100v100h100v-100zM300 300v-100h-100v100h100zM100 100v100h100v-100h-100zM300 400h100v-100h-100v100zM400 500h100v-100h-100v100z" />
    <glyph glyph-name="Euro" unicode="&#x20ac;" horiz-adv-x="600" 
d="M500 100h-100v100h100v-100zM400 700v-100h-200v100h200zM300 300v-100h-100v-100h-100v100h-100v100h100v100h-100v100h100v100h100v-100h100v-100h-100v-100h100zM200 0v100h200v-100h-200zM500 500h-100v100h100v-100z" />
    <glyph glyph-name="uni2117" unicode="&#x2117;" horiz-adv-x="900" 
d="M600 300h-100v100h100v-100zM600 500v100h100v-100h-100zM300 300h200v-100h-200v-100h-100v400h300v-100h-200v-100zM200 0h-100v100h100v-100zM600 600h-400v100h400v-100zM100 100h-100v400h100v-400zM600 100h100v-100h-100v100zM100 600h100v-100h-100v100z
M600 -100h-400v100h400v-100zM700 500h100v-400h-100v400z" />
    <glyph glyph-name="uni2120" unicode="&#x2120;" horiz-adv-x="800" 
d="M700 400h-100v100h-200v-100h-100v200h-100v-200h-200v100h100v200h300v-100h200v100h100v-300z" />
    <glyph glyph-name="trademark" unicode="&#x2122;" horiz-adv-x="800" 
d="M700 400h-100v100h-200v-100h-100v200h-100v-200h-100v200h-100v100h400v-100h200v100h100v-300z" />
    <glyph glyph-name="Omega" unicode="&#x2126;" horiz-adv-x="600" 
d="M500 100v-100h-200v200h100v-100h100zM0 0v100h100v100h100v-200h-200zM400 700v-100h-300v100h300zM0 600h100v-400h-100v400zM500 600v-400h-100v400h100z" />
    <glyph glyph-name="uni2127" unicode="&#x2127;" horiz-adv-x="600" 
d="M500 100h-100v400h100v-400zM500 700v-100h-100v-100h-100v200h200zM100 0v100h300v-100h-300zM0 100v400h100v-400h-100zM0 700h200v-200h-100v100h-100v100z" />
    <glyph glyph-name="partialdiff" unicode="&#x2202;" 
d="M100 0v100h200v-100h-200zM400 100h-100v300h-200v100h200v100h100v-500zM0 100v300h100v-300h-100zM100 700h200v-100h-200v100z" />
    <glyph glyph-name="Delta" unicode="&#x2206;" horiz-adv-x="800" 
d="M0 0v200h100v-100h500v100h100v-200h-700zM400 700v-100h-100v100h100zM600 200h-100v200h100v-200zM300 600v-200h-100v200h100zM100 400h100v-200h-100v200zM400 400v200h100v-200h-100z" />
    <glyph glyph-name="uni2207" unicode="&#x2207;" horiz-adv-x="800" 
d="M500 100h-100v200h100v-200zM600 300h-100v200h100v-200zM400 100v-100h-100v100h100zM600 500v100h-500v-100h-100v200h700v-200h-100zM300 300v-200h-100v200h100zM100 500h100v-200h-100v200z" />
    <glyph glyph-name="product" unicode="&#x220f;" horiz-adv-x="700" 
d="M600 700v-100h-100v-700h-100v700h-200v-700h-100v700h-100v100h600z" />
    <glyph glyph-name="uni2210" unicode="&#x2210;" horiz-adv-x="700" 
d="M0 0h100v700h100v-700h200v700h100v-700h100v-100h-600v100z" />
    <glyph glyph-name="summation" unicode="&#x2211;" horiz-adv-x="600" 
d="M0 -100v100h100v100h100v-100h300v-100h-500zM500 700v-100h-300v-100h-100v100h-100v100h500zM300 500v-100h-100v100h100zM200 100v100h100v-100h-100zM300 200v200h100v-200h-100z" />
    <glyph glyph-name="minus" unicode="&#x2212;" 
d="M0 200v100h400v-100h-400z" />
    <glyph glyph-name="radical" unicode="&#x221a;" horiz-adv-x="800" 
d="M400 700h300v-100h-200v-200h-100v300zM200 0v100h-100v100h200v-200h-100zM300 200v200h100v-200h-100zM0 200v100h100v-100h-100z" />
    <glyph glyph-name="infinity" unicode="&#x221e;" horiz-adv-x="900" 
d="M500 100v100h200v-100h-200zM700 400h100v-200h-100v200zM300 300v100h100v-100h-100zM300 500v-100h-200v100h200zM100 100v100h200v-100h-200zM500 300v-100h-100v100h100zM0 200v200h100v-200h-100zM500 500h200v-100h-200v100z" />
    <glyph glyph-name="integral" unicode="&#x222b;" horiz-adv-x="400" 
d="M0 -100h100v-100h-100v100zM100 -100v700h100v-700h-100zM200 600v100h100v-100h-100z" />
    <glyph glyph-name="approxequal" unicode="&#x2248;" horiz-adv-x="600" 
d="M100 100h-100v100h100v-100zM500 300v-100h-100v100h100zM0 400v100h100v-100h-100zM500 500h-100v100h100v-100zM100 600h100v-100h-100v100zM200 200h-100v100h100v-100zM200 400v100h200v-100h-200zM400 200v-100h-200v100h200z" />
    <glyph glyph-name="notequal" unicode="&#x2260;" horiz-adv-x="400" 
d="M300 300v-100h-200v-100h-100v200h100v100h-100v100h200v100h100v-200h-100v-100h100z" />
    <glyph glyph-name="lessequal" unicode="&#x2264;" horiz-adv-x="400" 
d="M0 0v100h200v100h100v-200h-300zM300 500h-100v100h100v-100zM100 400v100h100v-100h-100zM0 400h100v-100h-100v100zM100 200v100h100v-100h-100z" />
    <glyph glyph-name="greaterequal" unicode="&#x2265;" horiz-adv-x="400" 
d="M0 0v200h100v-100h200v-100h-300zM300 300h-100v100h100v-100zM0 600h100v-100h-100v100zM100 400v100h100v-100h-100zM100 200v100h100v-100h-100z" />
    <glyph glyph-name="uni25C6" unicode="&#x25c6;" horiz-adv-x="600" 
d="M400 100h-100v-100h-100v100h-100v100h-100v100h100v100h100v100h100v-100h100v-100h100v-100h-100v-100z" />
    <glyph glyph-name="uni25C7" unicode="&#x25c7;" horiz-adv-x="600" 
d="M400 100h-100v100h100v-100zM300 300v100h100v-100h-100zM200 0v100h100v-100h-100zM300 500v-100h-100v100h100zM100 100v100h100v-100h-100zM500 300v-100h-100v100h100zM100 400h100v-100h-100v100zM0 200v100h100v-100h-100z" />
    <glyph glyph-name="lozenge" unicode="&#x25ca;" horiz-adv-x="600" 
d="M400 100h-100v100h100v-100zM300 300v100h100v-100h-100zM200 0v100h100v-100h-100zM300 500v-100h-100v100h100zM100 100v100h100v-100h-100zM500 300v-100h-100v100h100zM100 400h100v-100h-100v100zM0 200v100h100v-100h-100z" />
    <glyph glyph-name="uniF700" unicode="&#xf700;" horiz-adv-x="600" 
d="M500 100v-100h-100v100h100zM0 0v700h100v-300h100v-100h-100v-300h-100zM400 700h100v-100h-100v100zM200 1000v-100h-100v100h100zM300 300v-100h-100v100h100zM100 900v-100h-100v100h100zM300 500v100h100v-100h-100zM400 1000h100v-100h-100v100zM200 800v100h200
v-100h-200zM300 100v100h100v-100h-100zM200 400v100h100v-100h-100z" />
    <glyph glyph-name="uniF701" unicode="&#xf701;" 
d="M0 0v700h100v-400h100v-100h-100v-200h-100zM200 1000v-100h-100v100h100zM300 300h-100v100h100v-100zM100 900v-100h-100v100h100zM300 500h100v-100h-100v100zM400 0h-100v100h100v-100zM400 1000v-100h-100v100h100zM200 800v100h100v-100h-100zM300 100h-100v100
h100v-100z" />
    <glyph glyph-name="uniF702" unicode="&#xf702;" horiz-adv-x="700" 
d="M0 0v700h100v-600h200v600h100v-600h200v-100h-600z" />
    <glyph glyph-name="uniF703" unicode="&#xf703;" horiz-adv-x="400" 
d="M0 0v700h100v-700h-100zM200 0v700h100v-700h-100z" />
    <glyph glyph-name="uniF704" unicode="&#xf704;" horiz-adv-x="800" 
d="M0 0v700h100v-100h100v-100h-100v-500h-100zM600 500h-100v100h100v100h100v-700h-100v500zM200 1000h100v-100h-100v100zM300 300v100h100v-100h-100zM100 900h100v-100h-100v100zM300 500v-100h-100v100h100zM500 900v100h100v-100h-100zM500 500v-100h-100v100h100z
M300 900h200v-100h-200v100z" />
    <glyph glyph-name="uniF705" unicode="&#xf705;" horiz-adv-x="800" 
d="M0 0v500h300v-100h-200v-400h-100zM700 400v-400h-100v400h100zM600 500v-100h-200v100h200zM400 0h-100v400h100v-400zM200 700v100h100v-100h-100zM300 600v100h200v-100h-200zM100 600v100h100v-100h-100zM500 700v100h100v-100h-100z" />
    <glyph glyph-name="uniFB00" unicode="&#xfb00;" 
d="M0 0v600h100v-100h100v100h100v-100h100v-100h-100v-400h-100v400h-100v-400h-100zM400 700v-100h-100v100h100zM100 700h100v-100h-100v100z" />
    <glyph glyph-name="fi" unicode="&#xfb01;" horiz-adv-x="400" 
d="M0 0v600h100v-100h200v-500h-100v400h-100v-400h-100zM100 700h100v-100h-100v100z" />
    <glyph glyph-name="fl" unicode="&#xfb02;" horiz-adv-x="400" 
d="M0 0v600h100v-100h100v100h-100v100h200v-700h-100v400h-100v-400h-100z" />
    <glyph glyph-name="uniFB03" unicode="&#xfb03;" horiz-adv-x="600" 
d="M0 0v600h100v-100h100v100h100v-100h200v-500h-100v400h-100v-400h-100v400h-100v-400h-100zM400 700v-100h-100v100h100zM100 700h100v-100h-100v100z" />
    <glyph glyph-name="uniFB04" unicode="&#xfb04;" horiz-adv-x="600" 
d="M0 0v600h100v-100h100v100h100v-100h100v100h-100v100h200v-700h-100v400h-100v-400h-100v400h-100v-400h-100zM100 700h100v-100h-100v100z" />
    <glyph glyph-name="uniFB05" unicode="&#xfb05;" 
d="M0 0v600h100v-600h-100zM400 100v-100h-100v100h100zM300 500h100v-100h-100v-300h-100v500h-100v100h200v-200z" />
    <glyph glyph-name="uniFB06" unicode="&#xfb06;" horiz-adv-x="700" 
d="M0 0v100h200v-100h-200zM500 100h100v-100h-100v100zM600 500v-100h-100v-300h-100v500h100v-100h100zM400 700v-100h-100v100h100zM300 600v-200h-200v100h100v100h100zM0 400h100v-100h-100v100zM300 100h-100v100h100v-100zM200 200h-100v100h100v-100z" />
    <glyph glyph-name="uniFB07" unicode="&#xfb07;" horiz-adv-x="700" 
d="M500 100h100v-100h-100v100zM600 500v-100h-100v-300h-100v500h100v-100h100zM400 700v-100h-100v100h100zM100 100h200v-100h-200v100zM300 600v-200h-200v100h100v100h100zM0 400h100v-300h-100v300z" />
  </font>
</defs>
</svg>
